<svg width="49" height="49" viewBox="0 0 49 49" fill="none" xmlns="http://www.w3.org/2000/svg">
<path d="M19.963 22.6852C19.7815 22.6852 19.6 22.6398 19.4186 22.5945C18.6926 22.3676 18.1482 21.6871 18.1482 20.8704V9.9815C18.1482 8.98335 18.9649 8.16669 19.963 8.16669C20.9612 8.16669 21.7778 8.98335 21.7778 9.9815V14.8815L25.725 8.98335C26.2695 8.16669 27.4037 7.93984 28.2204 8.48428C29.0371 9.02872 29.2639 10.163 28.7195 10.9797L21.4602 21.8685C21.1426 22.413 20.5528 22.6852 19.963 22.6852Z" fill="#F29100"/>
<path d="M27.2223 40.8334C26.6325 40.8334 26.0426 40.5611 25.725 40.0167L21.7778 34.1185V39.0185C21.7778 40.0167 20.9612 40.8334 19.963 40.8334C18.9649 40.8334 18.1482 40.0167 18.1482 39.0185V28.1297C18.1482 27.313 18.6926 26.6324 19.4186 26.4056C20.1899 26.1787 21.0065 26.451 21.4602 27.1315L28.7195 38.0204C29.2639 38.8371 29.0371 39.9713 28.2204 40.5158C27.9028 40.7426 27.5852 40.8334 27.2223 40.8334Z" fill="#F29100"/>
<path d="M39.0185 40.8333C38.4287 40.8333 37.8389 40.5611 37.5213 40.0167L27.8574 25.4981C27.4491 24.9083 27.4491 24.0917 27.8574 23.5018L37.5213 8.98333C38.0657 8.16666 39.2 7.93981 40.0167 8.48426C40.8333 9.0287 41.0602 10.163 40.5157 10.9796L31.5324 24.5L40.5611 38.0204C41.1055 38.837 40.8787 39.9713 40.062 40.5157C39.6991 40.7426 39.3815 40.8333 39.0185 40.8333Z" fill="#1D1D1B"/>
<path d="M9.98144 40.8334C8.98329 40.8334 8.16663 40.0167 8.16663 39.0185V9.9815C8.16663 8.98335 8.98329 8.16669 9.98144 8.16669C10.9796 8.16669 11.7963 8.98335 11.7963 9.9815V39.0185C11.7963 40.0167 10.9796 40.8334 9.98144 40.8334Z" fill="#1D1D1B"/>
<path d="M49 49H0V0H49V49ZM3.62963 45.3704H45.3704V3.62963H3.62963V45.3704Z" fill="#1D1D1B"/>
</svg>
